<?xml version="1.0" standalone="no"?>
<!DOCTYPE svg PUBLIC "-//W3C//DTD SVG 20010904//EN"
 "http://www.w3.org/TR/2001/REC-SVG-20010904/DTD/svg10.dtd">
<svg version="1.0" xmlns="http://www.w3.org/2000/svg"
 width="1440.000000pt" height="1440.000000pt" viewBox="0 0 1440.000000 1440.000000"
 preserveAspectRatio="xMidYMid meet">
<metadata>
Created by potrace 1.11, written by Peter Selinger 2001-2013
</metadata>
<g transform="translate(0.000000,1440.000000) scale(0.100000,-0.100000)"
fill="#000000" stroke="none">
<path d="M1578 11629 c-46 -7 -122 -52 -146 -87 -10 -15 -26 -43 -35 -64 -16
-33 -17 -284 -17 -3575 l0 -3539 -66 -59 c-89 -80 -108 -97 -204 -185 -45 -41
-92 -84 -104 -95 -19 -17 -136 -123 -235 -213 -14 -13 -69 -63 -121 -110 -52
-48 -115 -105 -139 -127 -24 -22 -54 -49 -66 -60 -11 -11 -45 -42 -75 -69
-274 -244 -318 -289 -341 -341 -17 -38 -25 -118 -16 -155 18 -74 78 -143 149
-172 41 -16 433 -17 7034 -17 6630 -1 6994 0 7039 17 58 21 129 94 144 148 16
58 13 134 -8 179 -20 45 -44 70 -151 165 -41 36 -88 79 -106 95 -17 17 -49 46
-70 65 -54 49 -260 236 -378 344 -55 50 -111 101 -124 113 -33 30 -192 175
-206 188 -7 6 -61 55 -121 110 -61 55 -130 118 -155 140 l-45 41 0 3529 c0
3232 -1 3534 -16 3578 -20 58 -67 109 -129 139 l-45 23 -5606 0 c-3083 0
-5622 -3 -5641 -6z"/>
</g>
</svg>
